<svg xmlns="http://www.w3.org/2000/svg" xmlns:xlink="http://www.w3.org/1999/xlink" width="5733" viewBox="0 0 4299.75 2299.499958" height="3066" preserveAspectRatio="xMidYMid meet"><defs><g></g><clipPath id="6259352950"><path d="M 1061 1372 L 1248.765625 1372 L 1248.765625 1613 L 1061 1613 Z M 1061 1372 " clip-rule="nonzero"></path></clipPath><clipPath id="eda16e9b0a"><path d="M 1102.226562 1406.488281 L 1153.816406 1499.105469 L 1061.984375 1552.121094 L 1097.066406 1612.894531 L 1248.738281 1525.320312 L 1163.554688 1372.339844 Z M 1102.226562 1406.488281 " clip-rule="nonzero"></path></clipPath><clipPath id="fa84b58e6f"><path d="M 631.832031 417.457031 L 1141 417.457031 L 1141 1366 L 631.832031 1366 Z M 631.832031 417.457031 " clip-rule="nonzero"></path></clipPath><clipPath id="4375621fb9"><path d="M 1140.78125 1331.480469 L 631.84375 417.488281 L 631.84375 561.722656 L 1079.480469 1365.601562 Z M 1140.78125 1331.480469 " clip-rule="nonzero"></path></clipPath><clipPath id="6b12d214b5"><path d="M 631.832031 1575 L 1056.703125 1575 L 1056.703125 1882 L 631.832031 1882 Z M 631.832031 1575 " clip-rule="nonzero"></path></clipPath><clipPath id="f0fd08b0d3"><path d="M 1021.476562 1575.507812 L 631.84375 1800.492188 L 631.84375 1881.535156 L 1056.558594 1636.3125 Z M 1021.476562 1575.507812 " clip-rule="nonzero"></path></clipPath><clipPath id="604b2505cc"><path d="M 14.894531 417.457031 L 632 417.457031 L 632 1882 L 14.894531 1882 Z M 14.894531 417.457031 " clip-rule="nonzero"></path></clipPath><clipPath id="751db5c877"><path d="M 631.84375 1881.507812 L 14.921875 1525.351562 L 631.84375 417.488281 L 631.84375 561.722656 L 109.84375 1499.105469 L 631.84375 1800.492188 Z M 631.84375 1881.507812 " clip-rule="nonzero"></path></clipPath><clipPath id="4a32fa17cf"><path d="M 576.699219 561.722656 L 631.84375 561.722656 L 631.84375 1839.105469 L 576.699219 1839.105469 Z M 576.699219 561.722656 " clip-rule="nonzero"></path></clipPath></defs><g clip-path="url(#6259352950)"><g clip-path="url(#eda16e9b0a)"><path fill="#00bcd4" d="M 0.34375 402.90625 L 1263.316406 402.90625 L 1263.316406 1895.777344 L 0.34375 1895.777344 Z M 0.34375 402.90625 " fill-opacity="1" fill-rule="nonzero"></path></g></g><g clip-path="url(#fa84b58e6f)"><g clip-path="url(#4375621fb9)"><path fill="#ffffff" d="M 0.34375 402.90625 L 1263.316406 402.90625 L 1263.316406 1895.777344 L 0.34375 1895.777344 Z M 0.34375 402.90625 " fill-opacity="1" fill-rule="nonzero"></path></g></g><g clip-path="url(#6b12d214b5)"><g clip-path="url(#f0fd08b0d3)"><path fill="#ffffff" d="M 0.34375 402.90625 L 1263.316406 402.90625 L 1263.316406 1895.777344 L 0.34375 1895.777344 Z M 0.34375 402.90625 " fill-opacity="1" fill-rule="nonzero"></path></g></g><g clip-path="url(#604b2505cc)"><g clip-path="url(#751db5c877)"><path fill="#ffffff" d="M 0.34375 402.90625 L 1263.316406 402.90625 L 1263.316406 1895.777344 L 0.34375 1895.777344 Z M 0.34375 402.90625 " fill-opacity="1" fill-rule="nonzero"></path></g></g><g clip-path="url(#4a32fa17cf)"><path fill="#ffffff" d="M 0.34375 402.90625 L 1263.316406 402.90625 L 1263.316406 1895.777344 L 0.34375 1895.777344 Z M 0.34375 402.90625 " fill-opacity="1" fill-rule="nonzero"></path></g><g fill="#00bcd4" fill-opacity="1"><g transform="translate(1363.750382, 1441.695738)"><g><path d="M 256.328125 -588.984375 L 305.265625 -588.984375 L 549.984375 0 L 488.609375 0 L 412.28125 -184.15625 L 147.65625 -184.15625 L 72.171875 0 L 9.953125 0 Z M 399.015625 -229.78125 L 280.390625 -520.953125 L 160.109375 -229.78125 Z M 399.015625 -229.78125 "></path></g></g></g><g fill="#ffffff" fill-opacity="1"><g transform="translate(1924.534662, 1441.695738)"><g><path d="M 73.828125 0 L 73.828125 -588.984375 L 322.6875 -588.984375 C 348.132812 -588.984375 371.503906 -583.585938 392.796875 -572.796875 C 414.085938 -562.015625 432.472656 -547.910156 447.953125 -530.484375 C 463.441406 -513.066406 475.472656 -493.296875 484.046875 -471.171875 C 492.617188 -449.054688 496.90625 -426.660156 496.90625 -403.984375 C 496.90625 -382.421875 493.722656 -361.820312 487.359375 -342.1875 C 480.992188 -322.550781 472.144531 -304.851562 460.8125 -289.09375 C 449.476562 -273.332031 435.789062 -260.0625 419.75 -249.28125 C 403.707031 -238.5 385.734375 -231.171875 365.828125 -227.296875 L 510.171875 0 L 444.640625 0 L 306.109375 -217.34375 L 131.890625 -217.34375 L 131.890625 0 Z M 131.890625 -268.765625 L 324.359375 -268.765625 C 341.492188 -268.765625 357.113281 -272.5 371.21875 -279.96875 C 385.320312 -287.4375 397.347656 -297.53125 407.296875 -310.25 C 417.253906 -322.96875 425 -337.34375 430.53125 -353.375 C 436.0625 -369.414062 438.828125 -386.285156 438.828125 -403.984375 C 438.828125 -421.679688 435.644531 -438.6875 429.28125 -455 C 422.925781 -471.320312 414.351562 -485.566406 403.5625 -497.734375 C 392.78125 -509.898438 380.0625 -519.578125 365.40625 -526.765625 C 350.757812 -533.953125 335.414062 -537.546875 319.375 -537.546875 L 131.890625 -537.546875 Z M 131.890625 -268.765625 "></path></g></g></g><g fill="#ffffff" fill-opacity="1"><g transform="translate(2466.231281, 1441.695738)"><g><path d="M 71.34375 -588.984375 L 282.046875 -72.171875 L 491.921875 -588.984375 L 552.484375 -588.984375 L 306.9375 0 L 256.328125 0 L 10.78125 -588.984375 Z M 71.34375 -588.984375 "></path></g></g></g><g fill="#00bcd4" fill-opacity="1"><g transform="translate(3029.501346, 1441.695738)"><g><path d="M 73.828125 0 L 73.828125 -588.984375 L 131.890625 -588.984375 L 131.890625 0 Z M 73.828125 0 "></path></g></g></g><g fill="#ffffff" fill-opacity="1"><g transform="translate(3235.237849, 1441.695738)"><g><path d="M 418.09375 -478.65625 C 401.5 -497.457031 379.375 -512.660156 351.71875 -524.265625 C 324.070312 -535.878906 292.550781 -541.6875 257.15625 -541.6875 C 205.175781 -541.6875 167.296875 -531.867188 143.515625 -512.234375 C 119.734375 -492.609375 107.84375 -465.925781 107.84375 -432.1875 C 107.84375 -414.5 111.019531 -399.984375 117.375 -388.640625 C 123.738281 -377.304688 133.554688 -367.488281 146.828125 -359.1875 C 160.097656 -350.894531 177.101562 -343.707031 197.84375 -337.625 C 218.582031 -331.539062 243.054688 -325.457031 271.265625 -319.375 C 302.785156 -312.738281 331.125 -305.269531 356.28125 -296.96875 C 381.445312 -288.675781 402.878906 -278.304688 420.578125 -265.859375 C 438.273438 -253.421875 451.820312 -238.351562 461.21875 -220.65625 C 470.625 -202.957031 475.328125 -180.835938 475.328125 -154.296875 C 475.328125 -127.191406 470.070312 -103.6875 459.5625 -83.78125 C 449.0625 -63.875 434.40625 -47.285156 415.59375 -34.015625 C 396.789062 -20.742188 374.394531 -10.925781 348.40625 -4.5625 C 322.414062 1.800781 293.9375 4.984375 262.96875 4.984375 C 171.71875 4.984375 92.910156 -23.5 26.546875 -80.46875 L 55.578125 -127.75 C 66.085938 -116.6875 78.671875 -106.175781 93.328125 -96.21875 C 107.984375 -86.269531 124.296875 -77.5625 142.265625 -70.09375 C 160.242188 -62.625 179.460938 -56.816406 199.921875 -52.671875 C 220.378906 -48.523438 241.945312 -46.453125 264.625 -46.453125 C 311.632812 -46.453125 348.269531 -54.882812 374.53125 -71.75 C 400.800781 -88.625 413.9375 -114.203125 413.9375 -148.484375 C 413.9375 -166.734375 410.203125 -182.078125 402.734375 -194.515625 C 395.273438 -206.960938 384.078125 -217.75 369.140625 -226.875 C 354.210938 -236 335.6875 -243.878906 313.5625 -250.515625 C 291.445312 -257.160156 265.734375 -263.800781 236.421875 -270.4375 C 205.453125 -277.625 178.351562 -285.085938 155.125 -292.828125 C 131.894531 -300.566406 112.257812 -310.242188 96.21875 -321.859375 C 80.1875 -333.472656 68.160156 -347.4375 60.140625 -363.75 C 52.117188 -380.070312 48.109375 -400.125 48.109375 -423.90625 C 48.109375 -451 53.222656 -475.191406 63.453125 -496.484375 C 73.691406 -517.773438 88.210938 -535.472656 107.015625 -549.578125 C 125.816406 -563.679688 147.9375 -574.460938 173.375 -581.921875 C 198.8125 -589.390625 227.015625 -593.125 257.984375 -593.125 C 297.253906 -593.125 332.234375 -587.175781 362.921875 -575.28125 C 393.617188 -563.394531 421.410156 -546.671875 446.296875 -525.109375 Z M 418.09375 -478.65625 "></path></g></g></g><g fill="#ffffff" fill-opacity="1"><g transform="translate(3738.775073, 1441.695738)"><g><path d="M 491.921875 -537.546875 L 282.046875 -537.546875 L 282.046875 0 L 223.984375 0 L 223.984375 -537.546875 L 14.109375 -537.546875 L 14.109375 -588.984375 L 491.921875 -588.984375 Z M 491.921875 -537.546875 "></path></g></g></g></svg>